<svg width="99" height="39" viewBox="0 0 99 39" fill="none" xmlns="http://www.w3.org/2000/svg">
<g clip-path="url(#clip0_209_9)">
<path d="M15.4999 38.3158C11.5678 38.3158 7.79675 36.7299 5.01629 33.907C2.23586 31.084 0.673828 27.2554 0.673828 23.2632C0.673828 16.6739 5.69617 11.4035 10.1125 6.57355L15.4999 0.684204L20.8873 6.57355C25.3037 11.4054 30.326 16.6757 30.326 23.2632C30.326 27.2554 28.764 31.084 25.9836 33.907C23.2031 36.7299 19.4321 38.3158 15.4999 38.3158Z" fill="#015F6B"/>
<path d="M15.5001 32.158C12.8191 32.158 10.2478 31.0911 8.35213 29.192C6.45638 27.2929 5.39136 24.7173 5.39136 22.0316C5.39136 17.5988 8.81571 14.0534 11.8268 10.8041L15.5001 6.84216L19.1733 10.8041C22.1844 14.0546 25.6087 17.6001 25.6087 22.0316C25.6087 24.7173 24.5437 27.2929 22.648 29.192C20.7523 31.0911 18.181 32.158 15.5001 32.158Z" fill="#00B4CB"/>
</g>
<g clip-path="url(#clip1_209_9)">
<path d="M83.4999 38.3158C79.5678 38.3158 75.7968 36.7299 73.0163 33.907C70.2359 31.084 68.6738 27.2554 68.6738 23.2632C68.6738 16.6739 73.6962 11.4035 78.1125 6.57355L83.4999 0.684204L88.8873 6.57355C93.3037 11.4054 98.326 16.6757 98.326 23.2632C98.326 27.2554 96.764 31.084 93.9836 33.907C91.2031 36.7299 87.4321 38.3158 83.4999 38.3158Z" fill="#015F6B"/>
<path d="M83.5001 32.158C80.8191 32.158 78.2478 31.0911 76.3521 29.192C74.4564 27.2929 73.3914 24.7173 73.3914 22.0316C73.3914 17.5988 76.8157 14.0534 79.8268 10.8041L83.5001 6.84216L87.1733 10.8041C90.1844 14.0546 93.6087 17.6001 93.6087 22.0316C93.6087 24.7173 92.5437 27.2929 90.648 29.192C88.7523 31.0911 86.181 32.158 83.5001 32.158Z" fill="#00B4CB"/>
</g>
<defs>
<clipPath id="clip0_209_9">
<rect width="31" height="39" fill="white"/>
</clipPath>
<clipPath id="clip1_209_9">
<rect width="31" height="39" fill="white" transform="translate(68)"/>
</clipPath>
</defs>
</svg>
