<svg width="613" height="1053" viewBox="0 0 613 1053" fill="none" xmlns="http://www.w3.org/2000/svg">
<path d="M592 61.5C586.165 61.5 580.569 59.1822 576.444 55.0564C572.318 50.9306 570 45.3348 570 39.5C570 29.8695 577.453 22.1668 584.006 15.1075L592 6.5L599.994 15.1075C606.547 22.1695 614 29.8723 614 39.5C614 45.3348 611.682 50.9306 607.556 55.0564C603.431 59.1822 597.835 61.5 592 61.5V61.5Z" stroke="#008B9E" stroke-linecap="round" stroke-linejoin="round"/>
<path d="M507 62C501.165 62 495.569 59.6822 491.444 55.5564C487.318 51.4306 485 45.8348 485 40C485 30.3695 492.453 22.6667 499.006 15.6075L507 7L514.994 15.6075C521.547 22.6695 529 30.3723 529 40C529 45.8348 526.682 51.4306 522.556 55.5564C518.431 59.6822 512.835 62 507 62V62Z" stroke="#008B9E" stroke-linecap="round" stroke-linejoin="round"/>
<path d="M422 61C416.165 61 410.569 58.6822 406.444 54.5564C402.318 50.4306 400 44.8348 400 39C400 29.3695 407.453 21.6667 414.006 14.6075L422 6L429.994 14.6075C436.547 21.6695 444 29.3723 444 39C444 44.8348 441.682 50.4306 437.556 54.5564C433.431 58.6822 427.835 61 422 61V61Z" stroke="#008B9E" stroke-linecap="round" stroke-linejoin="round"/>
<path d="M337 60C331.165 60 325.569 57.6822 321.444 53.5564C317.318 49.4306 315 43.8348 315 38C315 28.3695 322.453 20.6667 329.006 13.6075L337 5L344.994 13.6075C351.547 20.6695 359 28.3723 359 38C359 43.8348 356.682 49.4306 352.556 53.5564C348.431 57.6822 342.835 60 337 60V60Z" stroke="#008B9E" stroke-linecap="round" stroke-linejoin="round"/>
<path d="M252 59C246.165 59 240.569 56.6822 236.444 52.5564C232.318 48.4306 230 42.8348 230 37C230 27.3695 237.453 19.6667 244.006 12.6075L252 4L259.994 12.6075C266.547 19.6695 274 27.3723 274 37C274 42.8348 271.682 48.4306 267.556 52.5564C263.431 56.6822 257.835 59 252 59V59Z" stroke="#008B9E" stroke-linecap="round" stroke-linejoin="round"/>
<path d="M167 58C161.165 58 155.569 55.6822 151.444 51.5564C147.318 47.4306 145 41.8348 145 36C145 26.3695 152.453 18.6667 159.006 11.6075L167 3L174.994 11.6075C181.547 18.6695 189 26.3723 189 36C189 41.8348 186.682 47.4306 182.556 51.5564C178.431 55.6822 172.835 58 167 58V58Z" stroke="#008B9E" stroke-linecap="round" stroke-linejoin="round"/>
<path d="M82 57C76.1652 57 70.5695 54.6822 66.4437 50.5564C62.3179 46.4306 60 40.8348 60 35C60 25.3695 67.4525 17.6667 74.0058 10.6075L82 2L89.9942 10.6075C96.5475 17.6695 104 25.3723 104 35C104 40.8348 101.682 46.4306 97.5564 50.5564C93.4306 54.6822 87.8348 57 82 57V57Z" stroke="#008B9E" stroke-linecap="round" stroke-linejoin="round"/>
<path d="M-3 56C-8.83476 56 -14.4305 53.6822 -18.5563 49.5564C-22.6821 45.4306 -25 39.8348 -25 34C-25 24.3695 -17.5475 16.6667 -10.9942 9.6075L-3 1L4.99425 9.6075C11.5475 16.6695 19 24.3723 19 34C19 39.8348 16.6822 45.4306 12.5564 49.5564C8.43055 53.6822 2.83476 56 -3 56V56Z" stroke="#008B9E" stroke-linecap="round" stroke-linejoin="round"/>
<path d="M592 151.5C586.165 151.5 580.569 149.182 576.444 145.056C572.318 140.931 570 135.335 570 129.5C570 119.869 577.453 112.167 584.006 105.108L592 96.5L599.994 105.108C606.547 112.17 614 119.872 614 129.5C614 135.335 611.682 140.931 607.556 145.056C603.431 149.182 597.835 151.5 592 151.5V151.5Z" stroke="#008B9E" stroke-linecap="round" stroke-linejoin="round"/>
<path d="M507 152C501.165 152 495.569 149.682 491.444 145.556C487.318 141.431 485 135.835 485 130C485 120.37 492.453 112.667 499.006 105.608L507 97L514.994 105.608C521.547 112.67 529 120.372 529 130C529 135.835 526.682 141.431 522.556 145.556C518.431 149.682 512.835 152 507 152V152Z" stroke="#008B9E" stroke-linecap="round" stroke-linejoin="round"/>
<path d="M422 151C416.165 151 410.569 148.682 406.444 144.556C402.318 140.431 400 134.835 400 129C400 119.37 407.453 111.667 414.006 104.608L422 96L429.994 104.608C436.547 111.67 444 119.372 444 129C444 134.835 441.682 140.431 437.556 144.556C433.431 148.682 427.835 151 422 151V151Z" stroke="#008B9E" stroke-linecap="round" stroke-linejoin="round"/>
<path d="M337 150C331.165 150 325.569 147.682 321.444 143.556C317.318 139.431 315 133.835 315 128C315 118.37 322.453 110.667 329.006 103.608L337 95L344.994 103.608C351.547 110.67 359 118.372 359 128C359 133.835 356.682 139.431 352.556 143.556C348.431 147.682 342.835 150 337 150V150Z" stroke="#008B9E" stroke-linecap="round" stroke-linejoin="round"/>
<path d="M252 149C246.165 149 240.569 146.682 236.444 142.556C232.318 138.431 230 132.835 230 127C230 117.37 237.453 109.667 244.006 102.608L252 94L259.994 102.608C266.547 109.67 274 117.372 274 127C274 132.835 271.682 138.431 267.556 142.556C263.431 146.682 257.835 149 252 149V149Z" stroke="#008B9E" stroke-linecap="round" stroke-linejoin="round"/>
<path d="M167 148C161.165 148 155.569 145.682 151.444 141.556C147.318 137.431 145 131.835 145 126C145 116.37 152.453 108.667 159.006 101.608L167 93L174.994 101.608C181.547 108.67 189 116.372 189 126C189 131.835 186.682 137.431 182.556 141.556C178.431 145.682 172.835 148 167 148V148Z" stroke="#008B9E" stroke-linecap="round" stroke-linejoin="round"/>
<path d="M82 147C76.1652 147 70.5695 144.682 66.4437 140.556C62.3179 136.431 60 130.835 60 125C60 115.37 67.4525 107.667 74.0058 100.608L82 92L89.9942 100.608C96.5475 107.67 104 115.372 104 125C104 130.835 101.682 136.431 97.5564 140.556C93.4306 144.682 87.8348 147 82 147V147Z" stroke="#008B9E" stroke-linecap="round" stroke-linejoin="round"/>
<path d="M-3 146C-8.83476 146 -14.4305 143.682 -18.5563 139.556C-22.6821 135.431 -25 129.835 -25 124C-25 114.37 -17.5475 106.667 -10.9942 99.6075L-3 91L4.99425 99.6075C11.5475 106.67 19 114.372 19 124C19 129.835 16.6822 135.431 12.5564 139.556C8.43055 143.682 2.83476 146 -3 146V146Z" stroke="#008B9E" stroke-linecap="round" stroke-linejoin="round"/>
<path d="M592 241.5C586.165 241.5 580.569 239.182 576.444 235.056C572.318 230.931 570 225.335 570 219.5C570 209.869 577.453 202.167 584.006 195.108L592 186.5L599.994 195.108C606.547 202.17 614 209.872 614 219.5C614 225.335 611.682 230.931 607.556 235.056C603.431 239.182 597.835 241.5 592 241.5V241.5Z" stroke="#008B9E" stroke-linecap="round" stroke-linejoin="round"/>
<path d="M507 242C501.165 242 495.569 239.682 491.444 235.556C487.318 231.431 485 225.835 485 220C485 210.37 492.453 202.667 499.006 195.608L507 187L514.994 195.608C521.547 202.67 529 210.372 529 220C529 225.835 526.682 231.431 522.556 235.556C518.431 239.682 512.835 242 507 242V242Z" stroke="#008B9E" stroke-linecap="round" stroke-linejoin="round"/>
<path d="M422 241C416.165 241 410.569 238.682 406.444 234.556C402.318 230.431 400 224.835 400 219C400 209.37 407.453 201.667 414.006 194.608L422 186L429.994 194.608C436.547 201.67 444 209.372 444 219C444 224.835 441.682 230.431 437.556 234.556C433.431 238.682 427.835 241 422 241V241Z" stroke="#008B9E" stroke-linecap="round" stroke-linejoin="round"/>
<path d="M337 240C331.165 240 325.569 237.682 321.444 233.556C317.318 229.431 315 223.835 315 218C315 208.37 322.453 200.667 329.006 193.608L337 185L344.994 193.608C351.547 200.67 359 208.372 359 218C359 223.835 356.682 229.431 352.556 233.556C348.431 237.682 342.835 240 337 240V240Z" stroke="#008B9E" stroke-linecap="round" stroke-linejoin="round"/>
<path d="M252 239C246.165 239 240.569 236.682 236.444 232.556C232.318 228.431 230 222.835 230 217C230 207.37 237.453 199.667 244.006 192.608L252 184L259.994 192.608C266.547 199.67 274 207.372 274 217C274 222.835 271.682 228.431 267.556 232.556C263.431 236.682 257.835 239 252 239V239Z" stroke="#008B9E" stroke-linecap="round" stroke-linejoin="round"/>
<path d="M167 238C161.165 238 155.569 235.682 151.444 231.556C147.318 227.431 145 221.835 145 216C145 206.37 152.453 198.667 159.006 191.608L167 183L174.994 191.608C181.547 198.67 189 206.372 189 216C189 221.835 186.682 227.431 182.556 231.556C178.431 235.682 172.835 238 167 238V238Z" stroke="#008B9E" stroke-linecap="round" stroke-linejoin="round"/>
<path d="M82 237C76.1652 237 70.5695 234.682 66.4437 230.556C62.3179 226.431 60 220.835 60 215C60 205.37 67.4525 197.667 74.0058 190.608L82 182L89.9942 190.608C96.5475 197.67 104 205.372 104 215C104 220.835 101.682 226.431 97.5564 230.556C93.4306 234.682 87.8348 237 82 237V237Z" stroke="#008B9E" stroke-linecap="round" stroke-linejoin="round"/>
<path d="M-3 236C-8.83476 236 -14.4305 233.682 -18.5563 229.556C-22.6821 225.431 -25 219.835 -25 214C-25 204.37 -17.5475 196.667 -10.9942 189.608L-3 181L4.99425 189.608C11.5475 196.67 19 204.372 19 214C19 219.835 16.6822 225.431 12.5564 229.556C8.43055 233.682 2.83476 236 -3 236V236Z" stroke="#008B9E" stroke-linecap="round" stroke-linejoin="round"/>
<path d="M592 331.5C586.165 331.5 580.569 329.182 576.444 325.056C572.318 320.931 570 315.335 570 309.5C570 299.869 577.453 292.167 584.006 285.108L592 276.5L599.994 285.108C606.547 292.17 614 299.872 614 309.5C614 315.335 611.682 320.931 607.556 325.056C603.431 329.182 597.835 331.5 592 331.5V331.5Z" stroke="#008B9E" stroke-linecap="round" stroke-linejoin="round"/>
<path d="M507 332C501.165 332 495.569 329.682 491.444 325.556C487.318 321.431 485 315.835 485 310C485 300.37 492.453 292.667 499.006 285.608L507 277L514.994 285.608C521.547 292.67 529 300.372 529 310C529 315.835 526.682 321.431 522.556 325.556C518.431 329.682 512.835 332 507 332V332Z" stroke="#008B9E" stroke-linecap="round" stroke-linejoin="round"/>
<path d="M422 331C416.165 331 410.569 328.682 406.444 324.556C402.318 320.431 400 314.835 400 309C400 299.37 407.453 291.667 414.006 284.608L422 276L429.994 284.608C436.547 291.67 444 299.372 444 309C444 314.835 441.682 320.431 437.556 324.556C433.431 328.682 427.835 331 422 331V331Z" stroke="#008B9E" stroke-linecap="round" stroke-linejoin="round"/>
<path d="M337 330C331.165 330 325.569 327.682 321.444 323.556C317.318 319.431 315 313.835 315 308C315 298.37 322.453 290.667 329.006 283.608L337 275L344.994 283.608C351.547 290.67 359 298.372 359 308C359 313.835 356.682 319.431 352.556 323.556C348.431 327.682 342.835 330 337 330V330Z" stroke="#008B9E" stroke-linecap="round" stroke-linejoin="round"/>
<path d="M252 329C246.165 329 240.569 326.682 236.444 322.556C232.318 318.431 230 312.835 230 307C230 297.37 237.453 289.667 244.006 282.608L252 274L259.994 282.608C266.547 289.67 274 297.372 274 307C274 312.835 271.682 318.431 267.556 322.556C263.431 326.682 257.835 329 252 329V329Z" stroke="#008B9E" stroke-linecap="round" stroke-linejoin="round"/>
<path d="M167 328C161.165 328 155.569 325.682 151.444 321.556C147.318 317.431 145 311.835 145 306C145 296.37 152.453 288.667 159.006 281.608L167 273L174.994 281.608C181.547 288.67 189 296.372 189 306C189 311.835 186.682 317.431 182.556 321.556C178.431 325.682 172.835 328 167 328V328Z" stroke="#008B9E" stroke-linecap="round" stroke-linejoin="round"/>
<path d="M82 327C76.1652 327 70.5695 324.682 66.4437 320.556C62.3179 316.431 60 310.835 60 305C60 295.37 67.4525 287.667 74.0058 280.608L82 272L89.9942 280.608C96.5475 287.67 104 295.372 104 305C104 310.835 101.682 316.431 97.5564 320.556C93.4306 324.682 87.8348 327 82 327V327Z" stroke="#008B9E" stroke-linecap="round" stroke-linejoin="round"/>
<path d="M-3 326C-8.83476 326 -14.4305 323.682 -18.5563 319.556C-22.6821 315.431 -25 309.835 -25 304C-25 294.37 -17.5475 286.667 -10.9942 279.608L-3 271L4.99425 279.608C11.5475 286.67 19 294.372 19 304C19 309.835 16.6822 315.431 12.5564 319.556C8.43055 323.682 2.83476 326 -3 326V326Z" stroke="#008B9E" stroke-linecap="round" stroke-linejoin="round"/>
<path d="M592 421.5C586.165 421.5 580.569 419.182 576.444 415.056C572.318 410.931 570 405.335 570 399.5C570 389.869 577.453 382.167 584.006 375.108L592 366.5L599.994 375.108C606.547 382.17 614 389.872 614 399.5C614 405.335 611.682 410.931 607.556 415.056C603.431 419.182 597.835 421.5 592 421.5V421.5Z" stroke="#008B9E" stroke-linecap="round" stroke-linejoin="round"/>
<path d="M507 422C501.165 422 495.569 419.682 491.444 415.556C487.318 411.431 485 405.835 485 400C485 390.37 492.453 382.667 499.006 375.608L507 367L514.994 375.608C521.547 382.67 529 390.372 529 400C529 405.835 526.682 411.431 522.556 415.556C518.431 419.682 512.835 422 507 422V422Z" stroke="#008B9E" stroke-linecap="round" stroke-linejoin="round"/>
<path d="M422 421C416.165 421 410.569 418.682 406.444 414.556C402.318 410.431 400 404.835 400 399C400 389.37 407.453 381.667 414.006 374.608L422 366L429.994 374.608C436.547 381.67 444 389.372 444 399C444 404.835 441.682 410.431 437.556 414.556C433.431 418.682 427.835 421 422 421V421Z" stroke="#008B9E" stroke-linecap="round" stroke-linejoin="round"/>
<path d="M337 420C331.165 420 325.569 417.682 321.444 413.556C317.318 409.431 315 403.835 315 398C315 388.37 322.453 380.667 329.006 373.608L337 365L344.994 373.608C351.547 380.67 359 388.372 359 398C359 403.835 356.682 409.431 352.556 413.556C348.431 417.682 342.835 420 337 420V420Z" stroke="#008B9E" stroke-linecap="round" stroke-linejoin="round"/>
<path d="M252 419C246.165 419 240.569 416.682 236.444 412.556C232.318 408.431 230 402.835 230 397C230 387.37 237.453 379.667 244.006 372.608L252 364L259.994 372.608C266.547 379.67 274 387.372 274 397C274 402.835 271.682 408.431 267.556 412.556C263.431 416.682 257.835 419 252 419V419Z" stroke="#008B9E" stroke-linecap="round" stroke-linejoin="round"/>
<path d="M167 418C161.165 418 155.569 415.682 151.444 411.556C147.318 407.431 145 401.835 145 396C145 386.37 152.453 378.667 159.006 371.608L167 363L174.994 371.608C181.547 378.67 189 386.372 189 396C189 401.835 186.682 407.431 182.556 411.556C178.431 415.682 172.835 418 167 418V418Z" stroke="#008B9E" stroke-linecap="round" stroke-linejoin="round"/>
<path d="M82 417C76.1652 417 70.5695 414.682 66.4437 410.556C62.3179 406.431 60 400.835 60 395C60 385.37 67.4525 377.667 74.0058 370.608L82 362L89.9942 370.608C96.5475 377.67 104 385.372 104 395C104 400.835 101.682 406.431 97.5564 410.556C93.4306 414.682 87.8348 417 82 417V417Z" stroke="#008B9E" stroke-linecap="round" stroke-linejoin="round"/>
<path d="M-3 416C-8.83476 416 -14.4305 413.682 -18.5563 409.556C-22.6821 405.431 -25 399.835 -25 394C-25 384.37 -17.5475 376.667 -10.9942 369.608L-3 361L4.99425 369.608C11.5475 376.67 19 384.372 19 394C19 399.835 16.6822 405.431 12.5564 409.556C8.43055 413.682 2.83476 416 -3 416V416Z" stroke="#008B9E" stroke-linecap="round" stroke-linejoin="round"/>
<path d="M592 511.5C586.165 511.5 580.569 509.182 576.444 505.056C572.318 500.931 570 495.335 570 489.5C570 479.869 577.453 472.167 584.006 465.108L592 456.5L599.994 465.108C606.547 472.17 614 479.872 614 489.5C614 495.335 611.682 500.931 607.556 505.056C603.431 509.182 597.835 511.5 592 511.5V511.5Z" stroke="#008B9E" stroke-linecap="round" stroke-linejoin="round"/>
<path d="M507 512C501.165 512 495.569 509.682 491.444 505.556C487.318 501.431 485 495.835 485 490C485 480.37 492.453 472.667 499.006 465.608L507 457L514.994 465.608C521.547 472.67 529 480.372 529 490C529 495.835 526.682 501.431 522.556 505.556C518.431 509.682 512.835 512 507 512V512Z" stroke="#008B9E" stroke-linecap="round" stroke-linejoin="round"/>
<path d="M422 511C416.165 511 410.569 508.682 406.444 504.556C402.318 500.431 400 494.835 400 489C400 479.37 407.453 471.667 414.006 464.608L422 456L429.994 464.608C436.547 471.67 444 479.372 444 489C444 494.835 441.682 500.431 437.556 504.556C433.431 508.682 427.835 511 422 511V511Z" stroke="#008B9E" stroke-linecap="round" stroke-linejoin="round"/>
<path d="M337 510C331.165 510 325.569 507.682 321.444 503.556C317.318 499.431 315 493.835 315 488C315 478.37 322.453 470.667 329.006 463.608L337 455L344.994 463.608C351.547 470.67 359 478.372 359 488C359 493.835 356.682 499.431 352.556 503.556C348.431 507.682 342.835 510 337 510V510Z" stroke="#008B9E" stroke-linecap="round" stroke-linejoin="round"/>
<path d="M252 509C246.165 509 240.569 506.682 236.444 502.556C232.318 498.431 230 492.835 230 487C230 477.37 237.453 469.667 244.006 462.608L252 454L259.994 462.608C266.547 469.67 274 477.372 274 487C274 492.835 271.682 498.431 267.556 502.556C263.431 506.682 257.835 509 252 509V509Z" stroke="#008B9E" stroke-linecap="round" stroke-linejoin="round"/>
<path d="M167 508C161.165 508 155.569 505.682 151.444 501.556C147.318 497.431 145 491.835 145 486C145 476.37 152.453 468.667 159.006 461.608L167 453L174.994 461.608C181.547 468.67 189 476.372 189 486C189 491.835 186.682 497.431 182.556 501.556C178.431 505.682 172.835 508 167 508V508Z" stroke="#008B9E" stroke-linecap="round" stroke-linejoin="round"/>
<path d="M82 507C76.1652 507 70.5695 504.682 66.4437 500.556C62.3179 496.431 60 490.835 60 485C60 475.37 67.4525 467.667 74.0058 460.608L82 452L89.9942 460.608C96.5475 467.67 104 475.372 104 485C104 490.835 101.682 496.431 97.5564 500.556C93.4306 504.682 87.8348 507 82 507V507Z" stroke="#008B9E" stroke-linecap="round" stroke-linejoin="round"/>
<path d="M-3 506C-8.83476 506 -14.4305 503.682 -18.5563 499.556C-22.6821 495.431 -25 489.835 -25 484C-25 474.37 -17.5475 466.667 -10.9942 459.608L-3 451L4.99425 459.608C11.5475 466.67 19 474.372 19 484C19 489.835 16.6822 495.431 12.5564 499.556C8.43055 503.682 2.83476 506 -3 506V506Z" stroke="#008B9E" stroke-linecap="round" stroke-linejoin="round"/>
<path d="M592 601.5C586.165 601.5 580.569 599.182 576.444 595.056C572.318 590.931 570 585.335 570 579.5C570 569.869 577.453 562.167 584.006 555.108L592 546.5L599.994 555.108C606.547 562.17 614 569.872 614 579.5C614 585.335 611.682 590.931 607.556 595.056C603.431 599.182 597.835 601.5 592 601.5V601.5Z" stroke="#008B9E" stroke-linecap="round" stroke-linejoin="round"/>
<path d="M507 602C501.165 602 495.569 599.682 491.444 595.556C487.318 591.431 485 585.835 485 580C485 570.37 492.453 562.667 499.006 555.608L507 547L514.994 555.608C521.547 562.67 529 570.372 529 580C529 585.835 526.682 591.431 522.556 595.556C518.431 599.682 512.835 602 507 602V602Z" stroke="#008B9E" stroke-linecap="round" stroke-linejoin="round"/>
<path d="M422 601C416.165 601 410.569 598.682 406.444 594.556C402.318 590.431 400 584.835 400 579C400 569.37 407.453 561.667 414.006 554.608L422 546L429.994 554.608C436.547 561.67 444 569.372 444 579C444 584.835 441.682 590.431 437.556 594.556C433.431 598.682 427.835 601 422 601V601Z" stroke="#008B9E" stroke-linecap="round" stroke-linejoin="round"/>
<path d="M337 600C331.165 600 325.569 597.682 321.444 593.556C317.318 589.431 315 583.835 315 578C315 568.37 322.453 560.667 329.006 553.608L337 545L344.994 553.608C351.547 560.67 359 568.372 359 578C359 583.835 356.682 589.431 352.556 593.556C348.431 597.682 342.835 600 337 600V600Z" stroke="#008B9E" stroke-linecap="round" stroke-linejoin="round"/>
<path d="M252 599C246.165 599 240.569 596.682 236.444 592.556C232.318 588.431 230 582.835 230 577C230 567.37 237.453 559.667 244.006 552.608L252 544L259.994 552.608C266.547 559.67 274 567.372 274 577C274 582.835 271.682 588.431 267.556 592.556C263.431 596.682 257.835 599 252 599V599Z" stroke="#008B9E" stroke-linecap="round" stroke-linejoin="round"/>
<path d="M167 598C161.165 598 155.569 595.682 151.444 591.556C147.318 587.431 145 581.835 145 576C145 566.37 152.453 558.667 159.006 551.608L167 543L174.994 551.608C181.547 558.67 189 566.372 189 576C189 581.835 186.682 587.431 182.556 591.556C178.431 595.682 172.835 598 167 598V598Z" stroke="#008B9E" stroke-linecap="round" stroke-linejoin="round"/>
<path d="M82 597C76.1652 597 70.5695 594.682 66.4437 590.556C62.3179 586.431 60 580.835 60 575C60 565.37 67.4525 557.667 74.0058 550.608L82 542L89.9942 550.608C96.5475 557.67 104 565.372 104 575C104 580.835 101.682 586.431 97.5564 590.556C93.4306 594.682 87.8348 597 82 597V597Z" stroke="#008B9E" stroke-linecap="round" stroke-linejoin="round"/>
<path d="M-3 596C-8.83476 596 -14.4305 593.682 -18.5563 589.556C-22.6821 585.431 -25 579.835 -25 574C-25 564.37 -17.5475 556.667 -10.9942 549.608L-3 541L4.99425 549.608C11.5475 556.67 19 564.372 19 574C19 579.835 16.6822 585.431 12.5564 589.556C8.43055 593.682 2.83476 596 -3 596V596Z" stroke="#008B9E" stroke-linecap="round" stroke-linejoin="round"/>
<path d="M592 691.5C586.165 691.5 580.569 689.182 576.444 685.056C572.318 680.931 570 675.335 570 669.5C570 659.869 577.453 652.167 584.006 645.108L592 636.5L599.994 645.108C606.547 652.17 614 659.872 614 669.5C614 675.335 611.682 680.931 607.556 685.056C603.431 689.182 597.835 691.5 592 691.5V691.5Z" stroke="#008B9E" stroke-linecap="round" stroke-linejoin="round"/>
<path d="M507 692C501.165 692 495.569 689.682 491.444 685.556C487.318 681.431 485 675.835 485 670C485 660.37 492.453 652.667 499.006 645.608L507 637L514.994 645.608C521.547 652.67 529 660.372 529 670C529 675.835 526.682 681.431 522.556 685.556C518.431 689.682 512.835 692 507 692V692Z" stroke="#008B9E" stroke-linecap="round" stroke-linejoin="round"/>
<path d="M422 691C416.165 691 410.569 688.682 406.444 684.556C402.318 680.431 400 674.835 400 669C400 659.37 407.453 651.667 414.006 644.608L422 636L429.994 644.608C436.547 651.67 444 659.372 444 669C444 674.835 441.682 680.431 437.556 684.556C433.431 688.682 427.835 691 422 691V691Z" stroke="#008B9E" stroke-linecap="round" stroke-linejoin="round"/>
<path d="M337 690C331.165 690 325.569 687.682 321.444 683.556C317.318 679.431 315 673.835 315 668C315 658.37 322.453 650.667 329.006 643.608L337 635L344.994 643.608C351.547 650.67 359 658.372 359 668C359 673.835 356.682 679.431 352.556 683.556C348.431 687.682 342.835 690 337 690V690Z" stroke="#008B9E" stroke-linecap="round" stroke-linejoin="round"/>
<path d="M252 689C246.165 689 240.569 686.682 236.444 682.556C232.318 678.431 230 672.835 230 667C230 657.37 237.453 649.667 244.006 642.608L252 634L259.994 642.608C266.547 649.67 274 657.372 274 667C274 672.835 271.682 678.431 267.556 682.556C263.431 686.682 257.835 689 252 689V689Z" stroke="#008B9E" stroke-linecap="round" stroke-linejoin="round"/>
<path d="M167 688C161.165 688 155.569 685.682 151.444 681.556C147.318 677.431 145 671.835 145 666C145 656.37 152.453 648.667 159.006 641.608L167 633L174.994 641.608C181.547 648.67 189 656.372 189 666C189 671.835 186.682 677.431 182.556 681.556C178.431 685.682 172.835 688 167 688V688Z" stroke="#008B9E" stroke-linecap="round" stroke-linejoin="round"/>
<path d="M82 687C76.1652 687 70.5695 684.682 66.4437 680.556C62.3179 676.431 60 670.835 60 665C60 655.37 67.4525 647.667 74.0058 640.608L82 632L89.9942 640.608C96.5475 647.67 104 655.372 104 665C104 670.835 101.682 676.431 97.5564 680.556C93.4306 684.682 87.8348 687 82 687V687Z" stroke="#008B9E" stroke-linecap="round" stroke-linejoin="round"/>
<path d="M-3 686C-8.83476 686 -14.4305 683.682 -18.5563 679.556C-22.6821 675.431 -25 669.835 -25 664C-25 654.37 -17.5475 646.667 -10.9942 639.608L-3 631L4.99425 639.608C11.5475 646.67 19 654.372 19 664C19 669.835 16.6822 675.431 12.5564 679.556C8.43055 683.682 2.83476 686 -3 686V686Z" stroke="#008B9E" stroke-linecap="round" stroke-linejoin="round"/>
<path d="M592 781.5C586.165 781.5 580.569 779.182 576.444 775.056C572.318 770.931 570 765.335 570 759.5C570 749.869 577.453 742.167 584.006 735.108L592 726.5L599.994 735.108C606.547 742.17 614 749.872 614 759.5C614 765.335 611.682 770.931 607.556 775.056C603.431 779.182 597.835 781.5 592 781.5V781.5Z" stroke="#008B9E" stroke-linecap="round" stroke-linejoin="round"/>
<path d="M507 782C501.165 782 495.569 779.682 491.444 775.556C487.318 771.431 485 765.835 485 760C485 750.37 492.453 742.667 499.006 735.608L507 727L514.994 735.608C521.547 742.67 529 750.372 529 760C529 765.835 526.682 771.431 522.556 775.556C518.431 779.682 512.835 782 507 782V782Z" stroke="#008B9E" stroke-linecap="round" stroke-linejoin="round"/>
<path d="M422 781C416.165 781 410.569 778.682 406.444 774.556C402.318 770.431 400 764.835 400 759C400 749.37 407.453 741.667 414.006 734.608L422 726L429.994 734.608C436.547 741.67 444 749.372 444 759C444 764.835 441.682 770.431 437.556 774.556C433.431 778.682 427.835 781 422 781V781Z" stroke="#008B9E" stroke-linecap="round" stroke-linejoin="round"/>
<path d="M337 780C331.165 780 325.569 777.682 321.444 773.556C317.318 769.431 315 763.835 315 758C315 748.37 322.453 740.667 329.006 733.608L337 725L344.994 733.608C351.547 740.67 359 748.372 359 758C359 763.835 356.682 769.431 352.556 773.556C348.431 777.682 342.835 780 337 780V780Z" stroke="#008B9E" stroke-linecap="round" stroke-linejoin="round"/>
<path d="M252 779C246.165 779 240.569 776.682 236.444 772.556C232.318 768.431 230 762.835 230 757C230 747.37 237.453 739.667 244.006 732.608L252 724L259.994 732.608C266.547 739.67 274 747.372 274 757C274 762.835 271.682 768.431 267.556 772.556C263.431 776.682 257.835 779 252 779V779Z" stroke="#008B9E" stroke-linecap="round" stroke-linejoin="round"/>
<path d="M167 778C161.165 778 155.569 775.682 151.444 771.556C147.318 767.431 145 761.835 145 756C145 746.37 152.453 738.667 159.006 731.608L167 723L174.994 731.608C181.547 738.67 189 746.372 189 756C189 761.835 186.682 767.431 182.556 771.556C178.431 775.682 172.835 778 167 778V778Z" stroke="#008B9E" stroke-linecap="round" stroke-linejoin="round"/>
<path d="M82 777C76.1652 777 70.5695 774.682 66.4437 770.556C62.3179 766.431 60 760.835 60 755C60 745.37 67.4525 737.667 74.0058 730.608L82 722L89.9942 730.608C96.5475 737.67 104 745.372 104 755C104 760.835 101.682 766.431 97.5564 770.556C93.4306 774.682 87.8348 777 82 777V777Z" stroke="#008B9E" stroke-linecap="round" stroke-linejoin="round"/>
<path d="M-3 776C-8.83476 776 -14.4305 773.682 -18.5563 769.556C-22.6821 765.431 -25 759.835 -25 754C-25 744.37 -17.5475 736.667 -10.9942 729.608L-3 721L4.99425 729.608C11.5475 736.67 19 744.372 19 754C19 759.835 16.6822 765.431 12.5564 769.556C8.43055 773.682 2.83476 776 -3 776V776Z" stroke="#008B9E" stroke-linecap="round" stroke-linejoin="round"/>
<path d="M592 871.5C586.165 871.5 580.569 869.182 576.444 865.056C572.318 860.931 570 855.335 570 849.5C570 839.869 577.453 832.167 584.006 825.108L592 816.5L599.994 825.108C606.547 832.17 614 839.872 614 849.5C614 855.335 611.682 860.931 607.556 865.056C603.431 869.182 597.835 871.5 592 871.5V871.5Z" stroke="#008B9E" stroke-linecap="round" stroke-linejoin="round"/>
<path d="M507 872C501.165 872 495.569 869.682 491.444 865.556C487.318 861.431 485 855.835 485 850C485 840.37 492.453 832.667 499.006 825.608L507 817L514.994 825.608C521.547 832.67 529 840.372 529 850C529 855.835 526.682 861.431 522.556 865.556C518.431 869.682 512.835 872 507 872V872Z" stroke="#008B9E" stroke-linecap="round" stroke-linejoin="round"/>
<path d="M422 871C416.165 871 410.569 868.682 406.444 864.556C402.318 860.431 400 854.835 400 849C400 839.37 407.453 831.667 414.006 824.608L422 816L429.994 824.608C436.547 831.67 444 839.372 444 849C444 854.835 441.682 860.431 437.556 864.556C433.431 868.682 427.835 871 422 871V871Z" stroke="#008B9E" stroke-linecap="round" stroke-linejoin="round"/>
<path d="M337 870C331.165 870 325.569 867.682 321.444 863.556C317.318 859.431 315 853.835 315 848C315 838.37 322.453 830.667 329.006 823.608L337 815L344.994 823.608C351.547 830.67 359 838.372 359 848C359 853.835 356.682 859.431 352.556 863.556C348.431 867.682 342.835 870 337 870V870Z" stroke="#008B9E" stroke-linecap="round" stroke-linejoin="round"/>
<path d="M252 869C246.165 869 240.569 866.682 236.444 862.556C232.318 858.431 230 852.835 230 847C230 837.37 237.453 829.667 244.006 822.608L252 814L259.994 822.608C266.547 829.67 274 837.372 274 847C274 852.835 271.682 858.431 267.556 862.556C263.431 866.682 257.835 869 252 869V869Z" stroke="#008B9E" stroke-linecap="round" stroke-linejoin="round"/>
<path d="M167 868C161.165 868 155.569 865.682 151.444 861.556C147.318 857.431 145 851.835 145 846C145 836.37 152.453 828.667 159.006 821.608L167 813L174.994 821.608C181.547 828.67 189 836.372 189 846C189 851.835 186.682 857.431 182.556 861.556C178.431 865.682 172.835 868 167 868V868Z" stroke="#008B9E" stroke-linecap="round" stroke-linejoin="round"/>
<path d="M82 867C76.1652 867 70.5695 864.682 66.4437 860.556C62.3179 856.431 60 850.835 60 845C60 835.37 67.4525 827.667 74.0058 820.608L82 812L89.9942 820.608C96.5475 827.67 104 835.372 104 845C104 850.835 101.682 856.431 97.5564 860.556C93.4306 864.682 87.8348 867 82 867V867Z" stroke="#008B9E" stroke-linecap="round" stroke-linejoin="round"/>
<path d="M-3 866C-8.83476 866 -14.4305 863.682 -18.5563 859.556C-22.6821 855.431 -25 849.835 -25 844C-25 834.37 -17.5475 826.667 -10.9942 819.608L-3 811L4.99425 819.608C11.5475 826.67 19 834.372 19 844C19 849.835 16.6822 855.431 12.5564 859.556C8.43055 863.682 2.83476 866 -3 866V866Z" stroke="#008B9E" stroke-linecap="round" stroke-linejoin="round"/>
<path d="M592 961.5C586.165 961.5 580.569 959.182 576.444 955.056C572.318 950.931 570 945.335 570 939.5C570 929.869 577.453 922.167 584.006 915.108L592 906.5L599.994 915.108C606.547 922.17 614 929.872 614 939.5C614 945.335 611.682 950.931 607.556 955.056C603.431 959.182 597.835 961.5 592 961.5V961.5Z" stroke="#008B9E" stroke-linecap="round" stroke-linejoin="round"/>
<path d="M507 962C501.165 962 495.569 959.682 491.444 955.556C487.318 951.431 485 945.835 485 940C485 930.37 492.453 922.667 499.006 915.608L507 907L514.994 915.608C521.547 922.67 529 930.372 529 940C529 945.835 526.682 951.431 522.556 955.556C518.431 959.682 512.835 962 507 962V962Z" stroke="#008B9E" stroke-linecap="round" stroke-linejoin="round"/>
<path d="M422 961C416.165 961 410.569 958.682 406.444 954.556C402.318 950.431 400 944.835 400 939C400 929.37 407.453 921.667 414.006 914.608L422 906L429.994 914.608C436.547 921.67 444 929.372 444 939C444 944.835 441.682 950.431 437.556 954.556C433.431 958.682 427.835 961 422 961V961Z" stroke="#008B9E" stroke-linecap="round" stroke-linejoin="round"/>
<path d="M337 960C331.165 960 325.569 957.682 321.444 953.556C317.318 949.431 315 943.835 315 938C315 928.37 322.453 920.667 329.006 913.608L337 905L344.994 913.608C351.547 920.67 359 928.372 359 938C359 943.835 356.682 949.431 352.556 953.556C348.431 957.682 342.835 960 337 960V960Z" stroke="#008B9E" stroke-linecap="round" stroke-linejoin="round"/>
<path d="M252 959C246.165 959 240.569 956.682 236.444 952.556C232.318 948.431 230 942.835 230 937C230 927.37 237.453 919.667 244.006 912.608L252 904L259.994 912.608C266.547 919.67 274 927.372 274 937C274 942.835 271.682 948.431 267.556 952.556C263.431 956.682 257.835 959 252 959V959Z" stroke="#008B9E" stroke-linecap="round" stroke-linejoin="round"/>
<path d="M167 958C161.165 958 155.569 955.682 151.444 951.556C147.318 947.431 145 941.835 145 936C145 926.37 152.453 918.667 159.006 911.608L167 903L174.994 911.608C181.547 918.67 189 926.372 189 936C189 941.835 186.682 947.431 182.556 951.556C178.431 955.682 172.835 958 167 958V958Z" stroke="#008B9E" stroke-linecap="round" stroke-linejoin="round"/>
<path d="M82 957C76.1652 957 70.5695 954.682 66.4437 950.556C62.3179 946.431 60 940.835 60 935C60 925.37 67.4525 917.667 74.0058 910.608L82 902L89.9942 910.608C96.5475 917.67 104 925.372 104 935C104 940.835 101.682 946.431 97.5564 950.556C93.4306 954.682 87.8348 957 82 957V957Z" stroke="#008B9E" stroke-linecap="round" stroke-linejoin="round"/>
<path d="M-3 956C-8.83476 956 -14.4305 953.682 -18.5563 949.556C-22.6821 945.431 -25 939.835 -25 934C-25 924.37 -17.5475 916.667 -10.9942 909.608L-3 901L4.99425 909.608C11.5475 916.67 19 924.372 19 934C19 939.835 16.6822 945.431 12.5564 949.556C8.43055 953.682 2.83476 956 -3 956V956Z" stroke="#008B9E" stroke-linecap="round" stroke-linejoin="round"/>
<path d="M592 1051.5C586.165 1051.5 580.569 1049.18 576.444 1045.06C572.318 1040.93 570 1035.33 570 1029.5C570 1019.87 577.453 1012.17 584.006 1005.11L592 996.5L599.994 1005.11C606.547 1012.17 614 1019.87 614 1029.5C614 1035.33 611.682 1040.93 607.556 1045.06C603.431 1049.18 597.835 1051.5 592 1051.5V1051.5Z" stroke="#008B9E" stroke-linecap="round" stroke-linejoin="round"/>
<path d="M507 1052C501.165 1052 495.569 1049.68 491.444 1045.56C487.318 1041.43 485 1035.83 485 1030C485 1020.37 492.453 1012.67 499.006 1005.61L507 997L514.994 1005.61C521.547 1012.67 529 1020.37 529 1030C529 1035.83 526.682 1041.43 522.556 1045.56C518.431 1049.68 512.835 1052 507 1052V1052Z" stroke="#008B9E" stroke-linecap="round" stroke-linejoin="round"/>
<path d="M422 1051C416.165 1051 410.569 1048.68 406.444 1044.56C402.318 1040.43 400 1034.83 400 1029C400 1019.37 407.453 1011.67 414.006 1004.61L422 996L429.994 1004.61C436.547 1011.67 444 1019.37 444 1029C444 1034.83 441.682 1040.43 437.556 1044.56C433.431 1048.68 427.835 1051 422 1051V1051Z" stroke="#008B9E" stroke-linecap="round" stroke-linejoin="round"/>
<path d="M337 1050C331.165 1050 325.569 1047.68 321.444 1043.56C317.318 1039.43 315 1033.83 315 1028C315 1018.37 322.453 1010.67 329.006 1003.61L337 995L344.994 1003.61C351.547 1010.67 359 1018.37 359 1028C359 1033.83 356.682 1039.43 352.556 1043.56C348.431 1047.68 342.835 1050 337 1050V1050Z" stroke="#008B9E" stroke-linecap="round" stroke-linejoin="round"/>
<path d="M252 1049C246.165 1049 240.569 1046.68 236.444 1042.56C232.318 1038.43 230 1032.83 230 1027C230 1017.37 237.453 1009.67 244.006 1002.61L252 994L259.994 1002.61C266.547 1009.67 274 1017.37 274 1027C274 1032.83 271.682 1038.43 267.556 1042.56C263.431 1046.68 257.835 1049 252 1049V1049Z" stroke="#008B9E" stroke-linecap="round" stroke-linejoin="round"/>
<path d="M167 1048C161.165 1048 155.569 1045.68 151.444 1041.56C147.318 1037.43 145 1031.83 145 1026C145 1016.37 152.453 1008.67 159.006 1001.61L167 993L174.994 1001.61C181.547 1008.67 189 1016.37 189 1026C189 1031.83 186.682 1037.43 182.556 1041.56C178.431 1045.68 172.835 1048 167 1048V1048Z" stroke="#008B9E" stroke-linecap="round" stroke-linejoin="round"/>
<path d="M82 1047C76.1652 1047 70.5695 1044.68 66.4437 1040.56C62.3179 1036.43 60 1030.83 60 1025C60 1015.37 67.4525 1007.67 74.0058 1000.61L82 992L89.9942 1000.61C96.5475 1007.67 104 1015.37 104 1025C104 1030.83 101.682 1036.43 97.5564 1040.56C93.4306 1044.68 87.8348 1047 82 1047V1047Z" stroke="#008B9E" stroke-linecap="round" stroke-linejoin="round"/>
<path d="M-3 1046C-8.83476 1046 -14.4305 1043.68 -18.5563 1039.56C-22.6821 1035.43 -25 1029.83 -25 1024C-25 1014.37 -17.5475 1006.67 -10.9942 999.608L-3 991L4.99425 999.608C11.5475 1006.67 19 1014.37 19 1024C19 1029.83 16.6822 1035.43 12.5564 1039.56C8.43055 1043.68 2.83476 1046 -3 1046V1046Z" stroke="#008B9E" stroke-linecap="round" stroke-linejoin="round"/>
</svg>
