<svg width="29" height="22" viewBox="0 0 29 22" fill="none" xmlns="http://www.w3.org/2000/svg">
<g clip-path="url(#clip0_87_8)">
<path d="M16.0316 2.32441L14.9622 0.270505C14.7855 -0.0861358 14.2327 -0.0990264 14.0378 0.270505L12.9684 2.32441L10.5986 2.64668C10.1772 2.70683 9.99594 3.20097 10.3086 3.49746L12.0305 5.0873L11.6227 7.32597C11.5592 7.72558 11.9942 8.03496 12.3839 7.85019L14.5091 6.78457L16.6206 7.833C17.0103 8.01777 17.4498 7.7084 17.3819 7.30879L16.9741 5.07011L18.6959 3.49746C19.0041 3.20527 18.8273 2.71113 18.4059 2.64668L16.0361 2.32441H16.0316ZM11.6 10.9998C10.798 10.9998 10.15 11.6143 10.15 12.3748V20.6248C10.15 21.3853 10.798 21.9998 11.6 21.9998H17.4C18.202 21.9998 18.85 21.3853 18.85 20.6248V12.3748C18.85 11.6143 18.202 10.9998 17.4 10.9998H11.6ZM1.45 13.7498C0.647969 13.7498 0 14.3643 0 15.1248V20.6248C0 21.3853 0.647969 21.9998 1.45 21.9998H7.25C8.05203 21.9998 8.7 21.3853 8.7 20.6248V15.1248C8.7 14.3643 8.05203 13.7498 7.25 13.7498H1.45ZM20.3 17.8748V20.6248C20.3 21.3853 20.948 21.9998 21.75 21.9998H27.55C28.352 21.9998 29 21.3853 29 20.6248V17.8748C29 17.1143 28.352 16.4998 27.55 16.4998H21.75C20.948 16.4998 20.3 17.1143 20.3 17.8748Z" fill="#343839"/>
</g>
<defs>
<clipPath id="clip0_87_8">
<rect width="29" height="22" fill="white"/>
</clipPath>
</defs>
</svg>
