<svg width="29" height="29" viewBox="0 0 29 29" fill="none" xmlns="http://www.w3.org/2000/svg">
<path d="M26.8052 14.3017L15.8622 3.3644L15.1287 2.63091C14.9616 2.46488 14.7356 2.3717 14.5 2.3717C14.2644 2.3717 14.0384 2.46488 13.8713 2.63091L2.19483 14.3017C2.02358 14.4723 1.88824 14.6754 1.7968 14.8992C1.70535 15.1229 1.65966 15.3627 1.66241 15.6044C1.67374 16.6013 2.50352 17.3971 3.5004 17.3971H4.70401V26.621H24.296V17.3971H25.5251C26.0094 17.3971 26.4653 17.2074 26.808 16.8647C26.9767 16.6965 27.1104 16.4965 27.2013 16.2763C27.2922 16.0561 27.3386 15.82 27.3376 15.5818C27.3376 15.1003 27.1479 14.6444 26.8052 14.3017V14.3017ZM16.0859 24.582H12.9141V18.8046H16.0859V24.582ZM22.2569 15.3581V24.582H17.8984V18.1249C17.8984 17.4991 17.3915 16.9921 16.7656 16.9921H12.2344C11.6085 16.9921 11.1016 17.4991 11.1016 18.1249V24.582H6.74307V15.3581H4.02432L14.5028 4.88804L15.157 5.54223L24.9785 15.3581H22.2569Z" fill="#343839"/>
</svg>
