<svg width="28" height="28" viewBox="0 0 28 28" fill="none" xmlns="http://www.w3.org/2000/svg">
<path fill-rule="evenodd" clip-rule="evenodd" d="M8.63854 20.2499C12.6315 19.6666 15.3807 19.7167 19.3789 20.2703C19.6684 20.3123 19.933 20.4576 20.1237 20.6795C20.3145 20.9013 20.4185 21.1847 20.4166 21.4772C20.4166 21.7572 20.3204 22.0291 20.1465 22.2414C19.8436 22.6116 19.5332 22.9757 19.2155 23.3334H20.7561C20.853 23.2179 20.9504 23.1001 21.049 22.9805C21.395 22.5562 21.5837 22.0253 21.5833 21.4778C21.5833 20.2966 20.7211 19.2787 19.5387 19.1153C15.446 18.5489 12.5854 18.4947 8.46996 19.0961C7.27529 19.2705 6.41663 20.3042 6.41663 21.4936C6.41663 22.0215 6.58871 22.5436 6.91479 22.9665C7.01104 23.0913 7.10613 23.2138 7.20063 23.334H8.70388C8.40837 22.9802 8.12015 22.6204 7.83938 22.2548C7.67252 22.036 7.58251 21.7682 7.58329 21.493C7.58329 20.8647 8.03479 20.338 8.63854 20.2499ZM14 14.5834C14.4596 14.5834 14.9147 14.4929 15.3394 14.317C15.764 14.1411 16.1498 13.8833 16.4748 13.5583C16.7998 13.2333 17.0576 12.8474 17.2335 12.4228C17.4094 11.9982 17.5 11.543 17.5 11.0834C17.5 10.6238 17.4094 10.1687 17.2335 9.74402C17.0576 9.31938 16.7998 8.93355 16.4748 8.60854C16.1498 8.28354 15.764 8.02573 15.3394 7.84984C14.9147 7.67395 14.4596 7.58341 14 7.58341C13.0717 7.58341 12.1815 7.95216 11.5251 8.60854C10.8687 9.26492 10.5 10.1552 10.5 11.0834C10.5 12.0117 10.8687 12.9019 11.5251 13.5583C12.1815 14.2147 13.0717 14.5834 14 14.5834V14.5834ZM14 15.7501C15.2376 15.7501 16.4246 15.2584 17.2998 14.3832C18.175 13.5081 18.6666 12.3211 18.6666 11.0834C18.6666 9.84574 18.175 8.65875 17.2998 7.78358C16.4246 6.90841 15.2376 6.41675 14 6.41675C12.7623 6.41675 11.5753 6.90841 10.7001 7.78358C9.82496 8.65875 9.33329 9.84574 9.33329 11.0834C9.33329 12.3211 9.82496 13.5081 10.7001 14.3832C11.5753 15.2584 12.7623 15.7501 14 15.7501V15.7501Z" fill="#343839"/>
<path fill-rule="evenodd" clip-rule="evenodd" d="M14 24.5C19.7989 24.5 24.5 19.799 24.5 14C24.5 8.20112 19.7989 3.50004 14 3.50004C8.20106 3.50004 3.49998 8.20112 3.49998 14C3.49998 19.799 8.20106 24.5 14 24.5ZM14 25.6667C20.4435 25.6667 25.6666 20.4435 25.6666 14C25.6666 7.55654 20.4435 2.33337 14 2.33337C7.55648 2.33337 2.33331 7.55654 2.33331 14C2.33331 20.4435 7.55648 25.6667 14 25.6667Z" fill="#343839"/>
</svg>
