<svg width="46" height="57" viewBox="0 0 46 57" fill="none" xmlns="http://www.w3.org/2000/svg">
<path d="M23 56C17.1652 56 11.5695 53.6822 7.44365 49.5564C3.31785 45.4305 1 39.8348 1 34C1 24.3695 8.4525 16.6667 15.0058 9.6075L23 1L30.9942 9.6075C37.5475 16.6695 45 24.3722 45 34C45 39.8348 42.6822 45.4305 38.5564 49.5564C34.4305 53.6822 28.8348 56 23 56Z" fill="#008B9E" stroke="#008B9E" stroke-linecap="round" stroke-linejoin="round"/>
<path d="M23 47C19.0218 47 15.2064 45.4407 12.3934 42.6652C9.58035 39.8896 8 36.1252 8 32.2C8 25.7213 13.0813 20.5395 17.5494 15.7905L23 10L28.4506 15.7905C32.9187 20.5413 38 25.7232 38 32.2C38 36.1252 36.4196 39.8896 33.6066 42.6652C30.7936 45.4407 26.9782 47 23 47Z" fill="#00B4CB"/>
</svg>
