<svg width="58" height="58" viewBox="0 0 58 58" fill="none" xmlns="http://www.w3.org/2000/svg">
<path d="M9.33102 25.6399C8.85031 25.6399 8.3893 25.449 8.04939 25.1091C7.70948 24.7692 7.51852 24.3081 7.51852 23.8274V9.33105C7.51852 8.85035 7.70948 8.38933 8.04939 8.04942C8.3893 7.70951 8.85031 7.51855 9.33102 7.51855H23.831C24.3117 7.51855 24.7727 7.70951 25.1126 8.04942C25.4526 8.38933 25.6435 8.85035 25.6435 9.33105V23.8274C25.6435 24.3081 25.4526 24.7692 25.1126 25.1091C24.7727 25.449 24.3117 25.6399 23.831 25.6399H9.33102ZM34.706 25.6399C34.2253 25.6399 33.7643 25.449 33.4244 25.1091C33.0845 24.7692 32.8935 24.3081 32.8935 23.8274V9.33105C32.8935 8.85035 33.0845 8.38933 33.4244 8.04942C33.7643 7.70951 34.2253 7.51855 34.706 7.51855H49.2024C49.6831 7.51855 50.1441 7.70951 50.484 8.04942C50.8239 8.38933 51.0149 8.85035 51.0149 9.33105V23.8274C51.0149 24.3081 50.8239 24.7692 50.484 25.1091C50.1441 25.449 49.6831 25.6399 49.2024 25.6399H34.706ZM9.33102 51.0149C8.85031 51.0149 8.3893 50.824 8.04939 50.4841C7.70948 50.1442 7.51852 49.6831 7.51852 49.2024V34.7024C7.51852 34.2217 7.70948 33.7607 8.04939 33.4208C8.3893 33.0809 8.85031 32.8899 9.33102 32.8899H23.831C24.3117 32.8899 24.7727 33.0809 25.1126 33.4208C25.4526 33.7607 25.6435 34.2217 25.6435 34.7024V49.2024C25.6435 49.6831 25.4526 50.1442 25.1126 50.4841C24.7727 50.824 24.3117 51.0149 23.831 51.0149H9.33102ZM34.706 51.0149C34.2253 51.0149 33.7643 50.824 33.4244 50.4841C33.0845 50.1442 32.8935 49.6831 32.8935 49.2024V34.7024C32.8935 34.2217 33.0845 33.7607 33.4244 33.4208C33.7643 33.0809 34.2253 32.8899 34.706 32.8899H49.2024C49.6831 32.8899 50.1441 33.0809 50.484 33.4208C50.8239 33.7607 51.0149 34.2217 51.0149 34.7024V49.2024C51.0149 49.6831 50.8239 50.1442 50.484 50.4841C50.1441 50.824 49.6831 51.0149 49.2024 51.0149H34.706Z" fill="#00E0FC" fill-opacity="0.5"/>
</svg>
